<?xml version="1.0" ?><!DOCTYPE svg  PUBLIC '-//W3C//DTD SVG 1.1//EN'  'http://www.w3.org/Graphics/SVG/1.1/DTD/svg11.dtd'><svg height="48px" id="Layer_1" style="enable-background:new 0 0 48 48;" version="1.1" viewBox="0 0 48 48" width="48px" xml:space="preserve" xmlns="http://www.w3.org/2000/svg" xmlns:xlink="http://www.w3.org/1999/xlink"><polyline points="17.011,28.851 10.011,28.851 10.011,17.851 " style="fill:none;stroke:#231F20;stroke-miterlimit:10;"/><line style="fill:none;stroke:#231F20;stroke-miterlimit:10;" x1="10.049" x2="16.966" y1="18.354" y2="18.354"/><g><line style="fill:none;stroke:#231F20;stroke-miterlimit:10;" x1="16.57" x2="23.611" y1="18.5" y2="11.5"/></g><line style="fill:none;stroke:#231F20;stroke-miterlimit:10;" x1="16.648" x2="23.611" y1="28.708" y2="35.729"/><path d="M23.957,36.018c0,0.096-0.154,0.171-0.346,0.171l0,0c-0.191,0-0.346-0.075-0.346-0.171V11.17  c0-0.094,0.154-0.17,0.346-0.17l0,0c0.191,0,0.346,0.076,0.346,0.17V36.018z" style="fill:#231F20;"/><line style="fill:none;stroke:#231F20;stroke-miterlimit:10;" x1="12.028" x2="12.028" y1="18.646" y2="28.396"/><line style="fill:none;stroke:#231F20;stroke-miterlimit:10;" x1="13.778" x2="13.778" y1="28.708" y2="18.708"/><path d="M31.216,16.255c0,0,8.154,6.778,0.042,14.891" style="fill:none;stroke:#231F20;stroke-miterlimit:10;"/><path d="M27.216,20.107c0,0,4.23,3.518,0.021,7.726" style="fill:none;stroke:#231F20;stroke-miterlimit:10;"/><path d="M29.453,18.232c0,0,5.941,4.939,0.029,10.851" style="fill:none;stroke:#231F20;stroke-miterlimit:10;"/></svg>