<?xml version="1.0" encoding="UTF-8" standalone="no"?>
<!-- Created with Inkscape (http://www.inkscape.org/) -->

<svg
   xmlns:dc="http://purl.org/dc/elements/1.1/"
   xmlns:cc="http://creativecommons.org/ns#"
   xmlns:rdf="http://www.w3.org/1999/02/22-rdf-syntax-ns#"
   xmlns:svg="http://www.w3.org/2000/svg"
   xmlns="http://www.w3.org/2000/svg"
   xmlns:sodipodi="http://sodipodi.sourceforge.net/DTD/sodipodi-0.dtd"
   xmlns:inkscape="http://www.inkscape.org/namespaces/inkscape"
   width="210mm"
   height="297mm"
   viewBox="0 0 744.09448819 1052.3622047"
   id="svg2"
   version="1.1"
   inkscape:version="0.91 r13725"
   sodipodi:docname="Fluffy chick 03.svg">
  <defs
     id="defs4" />
  <sodipodi:namedview
     id="base"
     pagecolor="#ffffff"
     bordercolor="#666666"
     borderopacity="1.0"
     inkscape:pageopacity="0.0"
     inkscape:pageshadow="2"
     inkscape:zoom="0.49497475"
     inkscape:cx="275.54648"
     inkscape:cy="632.08601"
     inkscape:document-units="px"
     inkscape:current-layer="layer1"
     showgrid="false"
     inkscape:window-width="1920"
     inkscape:window-height="1017"
     inkscape:window-x="-8"
     inkscape:window-y="-8"
     inkscape:window-maximized="1" />
  <metadata
     id="metadata7">
    <rdf:RDF>
      <cc:Work
         rdf:about="">
        <dc:format>image/svg+xml</dc:format>
        <dc:type
           rdf:resource="http://purl.org/dc/dcmitype/StillImage" />
        <dc:title></dc:title>
      </cc:Work>
    </rdf:RDF>
  </metadata>
  <g
     inkscape:label="Capa 1"
     inkscape:groupmode="layer"
     id="layer1">
    <g
       id="g4169">
      <g
         transform="matrix(1.7713167,0,0,1.3513229,-196.50457,-300.73725)"
         id="g4173">
        <g
           id="g4158"
           style="stroke-width:8;stroke-miterlimit:4;stroke-dasharray:none"
           transform="translate(75.714286,-77.142857)">
          <path
             sodipodi:nodetypes="ccc"
             inkscape:connector-curvature="0"
             id="path4153"
             d="m 202.09953,708.58157 0,148.57143 -47.14286,37.85714"
             style="fill:none;fill-rule:evenodd;stroke:#000000;stroke-width:8;stroke-linecap:butt;stroke-linejoin:miter;stroke-miterlimit:4;stroke-dasharray:none;stroke-opacity:1" />
          <path
             sodipodi:nodetypes="ccc"
             inkscape:connector-curvature="0"
             id="path4155"
             d="m 180,903.07649 22.14286,-45.71429 8.57143,42.14286"
             style="fill:none;fill-rule:evenodd;stroke:#000000;stroke-width:8;stroke-linecap:butt;stroke-linejoin:miter;stroke-miterlimit:4;stroke-dasharray:none;stroke-opacity:1" />
        </g>
      </g>
      <g
         transform="matrix(1.6429633,0,0,1.3523385,-172.41798,-301.46494)"
         id="g4168">
        <g
           transform="translate(181.42857,-70)"
           style="stroke-width:8;stroke-miterlimit:4;stroke-dasharray:none"
           id="g4162">
          <path
             style="fill:none;fill-rule:evenodd;stroke:#000000;stroke-width:8;stroke-linecap:butt;stroke-linejoin:miter;stroke-miterlimit:4;stroke-dasharray:none;stroke-opacity:1"
             d="m 202.09953,705.72443 0,148.57143 -47.14286,37.85714"
             id="path4164"
             inkscape:connector-curvature="0"
             sodipodi:nodetypes="ccc" />
          <path
             style="fill:none;fill-rule:evenodd;stroke:#000000;stroke-width:8;stroke-linecap:butt;stroke-linejoin:miter;stroke-miterlimit:4;stroke-dasharray:none;stroke-opacity:1"
             d="m 180,903.07649 22.14286,-45.71429 8.57143,42.14286"
             id="path4166"
             inkscape:connector-curvature="0"
             sodipodi:nodetypes="ccc" />
        </g>
      </g>
      <path
         inkscape:connector-curvature="0"
         id="path4136"
         d="m 422.15219,167.46747 c -20.83674,3.50436 -44.21694,8.19835 -57.07153,2.96692 -4.79434,12.96836 -40.74137,-16.57238 -48.95858,9.60837 -32.02438,5.49282 -71.48831,5.27773 -92.75035,33.83188 -14.69672,8.50795 -28.7502,10.97102 -36.2355,27.70144 -19.90887,3.69327 -24.03035,39.00768 -39.58001,55.37164 -6.71854,28.14941 -22.71639,53.4648 -41.51778,74.98407 -3.11025,16.41476 -2.62843,23.99122 -12.792291,40.24835 13.304591,8.42641 -5.196162,18.82447 -1.135332,33.58146 -14.370794,4.0683 9.178343,4.2522 -3.96689,15.43281 16.182543,6.41899 -15.205551,11.45771 4.244358,16.75368 -7.363094,16.40526 4.882932,45.50623 9.511585,69.58972 6.89773,17.10594 24.73074,23.9754 29.29191,43.00971 17.31227,17.88225 49.81052,29.2299 60.41771,46.50982 18.43343,-8.81292 0.93682,21.50705 17.14706,8.19976 27.36799,0.35096 24.94849,44.07416 56.27473,38.62555 17.36623,14.69462 37.60176,7.72544 53.49733,25.81333 9.48304,2.63763 10.84168,3.72117 23.83212,1.37662 13.50074,15.4732 50.46424,19.25009 57.26492,-5.46516 14.99804,-21.05488 12.85476,26.21654 22.75204,21.89996 -4.72541,-25.07147 39.74071,15.86714 44.0592,-9.92237 16.7721,-4.52904 38.62553,-10.39936 42.73494,-23.27607 11.46516,-15.72054 19.38149,-7.19674 34.52302,-13.95407 1.82895,-13.44303 16.66853,-22.93203 19.90248,-19.4795 14.53879,-19.93226 49.09376,-33.62988 48.25096,-59.51667 15.35881,-7.19394 4.41179,-30.2418 26.6508,-31.15335 -7.25742,-12.76871 10.84847,-38.90251 11.98194,-54.29565 6.3396,-7.40627 -7.31595,-25.6391 8.97292,-24.42542 -12.61905,4.5746 1.77623,-12.47885 -13.78017,-7.72333 12.09365,-11.12259 13.24172,-39.63383 2.96945,-49.39029 -8.762,5.28322 -3.76182,-18.95918 -15.693,-26.37387 8.46279,-16.00252 -16.4136,-42.75966 -18.91818,-60.18899 -12.53221,-7.82467 21.05874,-24.07764 -6.0168,-20.16155 -15.11881,-3.35394 -13.99681,-16.04905 -10.24262,-25.52327 -12.99127,-13.19629 -14.64042,-39.07161 -35.17704,-46.46147 -15.18414,-15.21907 -24.63815,-29.94956 -48.41037,-34.68186 -1.86831,-14.70187 -23.13076,-3.27506 -24.78728,-21.53222 -17.38781,-18.40735 -41.98308,-30.14274 -67.24575,-31.97998 z M 593.41492,293.3003 c 2.38755,3.10021 3.16925,4.11524 0,0 z m 8.09361,26.44216 c 6.82018,9.25626 7.10624,-5.8983 0,0 z m 37.27411,86.57983 0.77446,0.18715 -0.77446,-0.18715 z m 6.53551,20.61618 0.29585,0.21971 -0.29585,-0.21971 z m -4.30446,125.03679 c 2.40181,5.11736 2.14088,-1.51853 0,0 z m -16.63763,33.4337 c 1.36194,8.47381 3.22597,0.12121 0,0 z m -3.75791,5.26149 c -2.70467,8.33136 6.55659,9.65812 6e-5,2e-5 l -6e-5,-2e-5 z M 432.15226,721.49511 c -14.19291,1.5521 10.62713,12.58396 0,0 z m 2.23409,7.45181 c -1.49679,8.88883 4.01142,-1.40196 0,0 z m 1.90307,0.66973 c 10.53225,6.65218 4.1575,-0.73219 0,0 z m -7.66922,-2.72046 c -3.24271,-4.28927 -1.32311,2.89782 0,0 z m -1.85232,-0.68399 c -0.56892,-3.6204 -5.34735,0.91402 0,0 z m -35.61857,-3.69929 c 3.86545,5.19615 10.66656,-5.32881 0,0 z m -0.0872,0.2434 c -19.89175,-2.121 -9.75592,13.85075 0,0 z m -10.11604,0.0364 c -1.03538,-5.87434 -14.65252,6.6868 0,0 z m -5.54337,0.005 c -11.76587,-4.43997 -2.9851,13.65521 0,0 z m -9.49701,-554.03009 c 0.0155,-3.01834 0.011,-2.14712 0,0 z m 65.81547,10.79884 c 12.00081,-0.003 2.94319,3.43348 0,0 z m -119.24143,10.73425 c -3.46408,2.50855 -4.98636,3.61093 0,0 z m 320.21694,204.27429 c 4.65906,8.93952 -11.71207,7.05226 0,0 z M 280.28162,679.68732 c 0.66299,6.05825 -9.49224,1.55715 0,0 z"
         style="opacity:1;fill:#ffe680;fill-opacity:1;fill-rule:nonzero;stroke:none;stroke-width:2;stroke-linecap:butt;stroke-linejoin:round;stroke-miterlimit:4;stroke-dasharray:2, 12;stroke-dashoffset:0" />
      <ellipse
         transform="matrix(0.97426571,0.2254026,-0.2254026,0.97426571,0,0)"
         ry="60.959812"
         rx="41.607491"
         cy="258.97314"
         cx="388.55634"
         id="path4143"
         style="opacity:1;fill:#ffffff;fill-opacity:1;fill-rule:nonzero;stroke:none;stroke-width:6.77331257;stroke-linecap:butt;stroke-linejoin:round;stroke-miterlimit:4;stroke-dasharray:none;stroke-dashoffset:0" />
      <ellipse
         transform="matrix(0.98892443,0.14841991,-0.14841991,0.98892443,0,0)"
         style="opacity:1;fill:#ffffff;fill-opacity:1;fill-rule:nonzero;stroke:none;stroke-width:6.77331257;stroke-linecap:butt;stroke-linejoin:round;stroke-miterlimit:4;stroke-dasharray:none;stroke-dashoffset:0"
         id="ellipse4145"
         cx="491.87061"
         cy="312.41705"
         rx="41.607491"
         ry="60.959812" />
      <ellipse
         transform="matrix(0.99948868,0.03197452,-0.03197452,0.99948868,0,0)"
         ry="21.287554"
         rx="20.319937"
         cy="303.25174"
         cx="352.10648"
         id="path4147"
         style="opacity:1;fill:#000000;fill-opacity:1;fill-rule:nonzero;stroke:#000000;stroke-width:6.77331257;stroke-linecap:butt;stroke-linejoin:round;stroke-miterlimit:4;stroke-dasharray:none;stroke-dashoffset:0" />
      <ellipse
         transform="matrix(0.99948868,0.03197452,-0.03197452,0.99948868,0,0)"
         style="opacity:1;fill:#000000;fill-opacity:1;fill-rule:nonzero;stroke:#000000;stroke-width:6.77331257;stroke-linecap:butt;stroke-linejoin:round;stroke-miterlimit:4;stroke-dasharray:none;stroke-dashoffset:0"
         id="ellipse4149"
         cx="467.84497"
         cy="337.53766"
         rx="20.319937"
         ry="21.287554" />
      <path
         transform="matrix(-0.25870191,1.3297306,-1.3297306,-0.25870191,1184.1486,181.75039)"
         inkscape:transform-center-y="8.9378338"
         inkscape:transform-center-x="-44.03806"
         d="m 291.42857,610.93361 20.16759,-88.78662 66.80767,61.85896 z"
         inkscape:randomized="0"
         inkscape:rounded="0"
         inkscape:flatsided="true"
         sodipodi:arg2="3.3649495"
         sodipodi:arg1="2.3177519"
         sodipodi:r2="26.283384"
         sodipodi:r1="52.566769"
         sodipodi:cy="572.36218"
         sodipodi:cx="327.14285"
         sodipodi:sides="3"
         id="path4151"
         style="opacity:1;fill:#ff7f2a;fill-opacity:1;fill-rule:nonzero;stroke:none;stroke-width:5;stroke-linecap:butt;stroke-linejoin:round;stroke-miterlimit:4;stroke-dasharray:none;stroke-dashoffset:0"
         sodipodi:type="star" />
    </g>
  </g>
</svg>
