<svg xmlns="http://www.w3.org/2000/svg" xmlns:xlink="http://www.w3.org/1999/xlink" version="1.1" x="0px" y="0px" viewBox="0 0 100 125" enable-background="new 0 0 100 100" xml:space="preserve"><path d="M32.037,29.839l4.829,3.962c0.577,0.474,1.35,0.635,2.069,0.433l9.245-2.606l2.145,2.424  c0.483,0.544,1.192,0.828,1.919,0.762l6.941-0.635l4.152,5.111c0.44,0.542,1.096,0.844,1.773,0.844c0.204,0,0.41-0.027,0.614-0.084  l8.495-2.369c1.133-0.316,1.84-1.442,1.635-2.6c-2.418-13.632-8.926-22.869-17.407-24.709c-1.04-0.226-2.115-0.34-3.197-0.34  c-7.969,0-16.82,6.278-23.679,16.794C30.935,27.802,31.135,29.101,32.037,29.839z M55.25,14.601c0.756,0,1.506,0.08,2.228,0.236  c6.12,1.328,11.188,8.536,13.477,19.009l-5.015,1.399l-3.977-4.894c-0.437-0.536-1.089-0.844-1.772-0.844  c-0.069,0-0.139,0.003-0.208,0.01l-7.003,0.641l-2.327-2.632c-0.582-0.656-1.487-0.922-2.332-0.685l-9.479,2.671l-2.292-1.88  C42.284,19.546,49.329,14.601,55.25,14.601z"/><path d="M72.773,42.887c-0.604-0.219-1.276-0.174-1.846,0.127l-6.475,3.418l-4.924-3.94  c-0.664-0.532-1.569-0.651-2.347-0.307l-6.766,2.976l-4.003-1.501c-0.52-0.194-1.094-0.194-1.612,0.003l-7.887,2.992l-4.656-2.384  c-0.578-0.297-1.255-0.332-1.86-0.099c-0.606,0.233-1.085,0.712-1.316,1.319c-2.406,6.31-3.73,13.181-3.73,19.35  c0,16.846,9.661,26.506,26.505,26.506c16.844,0,26.506-9.66,26.506-26.506c0-6.644-1.511-13.985-4.254-20.673  C73.864,43.572,73.379,43.106,72.773,42.887z M51.856,86.777c-8.192,0-21.935-2.85-21.935-21.937c0-4.855,0.907-10.208,2.578-15.312  l3.236,1.657c0.574,0.295,1.248,0.33,1.852,0.104l8.03-3.046l4.067,1.524c0.558,0.21,1.176,0.193,1.723-0.048l6.35-2.793l5.012,4.01  c0.71,0.568,1.69,0.66,2.494,0.236l5.521-2.913c1.949,5.482,3.01,11.285,3.01,16.582C73.792,83.928,60.049,86.777,51.856,86.777z"/><circle cx="42.717" cy="39.25" r="2.589"/><circle cx="50.029" cy="39.25" r="2.59"/><path d="M20.248,30.523c0.445,0.437,1.023,0.653,1.601,0.653c0.591,0,1.184-0.229,1.631-0.685  c0.884-0.901,0.87-2.348-0.03-3.231l-8.074-7.922c-0.901-0.883-2.347-0.87-3.232,0.031c-0.883,0.901-0.87,2.348,0.031,3.231  L20.248,30.523z"/><path d="M22.152,36.051c0-1.262-1.023-2.285-2.285-2.285h-9.749c-1.262,0-2.285,1.023-2.285,2.285  c0,1.262,1.023,2.285,2.285,2.285h9.749C21.129,38.336,22.152,37.313,22.152,36.051z"/><path d="M20.595,41.409l-8.988,7.007c-0.995,0.775-1.172,2.212-0.397,3.208c0.451,0.577,1.124,0.88,1.804,0.88  c0.491,0,0.986-0.157,1.403-0.483l8.988-7.007c0.995-0.776,1.172-2.211,0.397-3.207C23.026,40.811,21.591,40.633,20.595,41.409z"/><path d="M83.087,37.118c0.315,0,0.638-0.066,0.942-0.205l6.703-3.047c1.149-0.521,1.657-1.876,1.135-3.025  c-0.521-1.148-1.877-1.657-3.025-1.134l-6.702,3.046c-1.15,0.522-1.657,1.877-1.135,3.026  C81.387,36.621,82.217,37.118,83.087,37.118z"/><path d="M91.707,45.964l-7.769-4.57c-1.088-0.64-2.488-0.277-3.128,0.811c-0.64,1.087-0.277,2.488,0.811,3.128l7.77,4.57  c0.364,0.213,0.764,0.315,1.156,0.315c0.783,0,1.547-0.403,1.973-1.126C93.158,48.003,92.796,46.603,91.707,45.964z"/><text x="0" y="115" fill="#000000" font-size="5px" font-weight="bold" font-family="'Helvetica Neue', Helvetica, Arial-Unicode, Arial, Sans-serif">Created by Mr. Minuvi</text><text x="0" y="120" fill="#000000" font-size="5px" font-weight="bold" font-family="'Helvetica Neue', Helvetica, Arial-Unicode, Arial, Sans-serif">from the Noun Project</text></svg>